<?xml version="1.0" encoding="utf-8"?>
<!-- Generator: Adobe Illustrator 24.2.0, SVG Export Plug-In . SVG Version: 6.00 Build 0)  -->
<svg version="1.1" id="Capa_1" xmlns="http://www.w3.org/2000/svg" xmlns:xlink="http://www.w3.org/1999/xlink" x="0px" y="0px"
	 viewBox="0 0 512 512" style="enable-background:new 0 0 512 512;" xml:space="preserve">
<style type="text/css">
	.st0{fill:#FFFFFF;}
</style>
<g>
	<g>
		<path class="st0" d="M456.6,154.4l-150-150C303.8,1.6,300,0,296,0H66c-8.3,0-15,6.7-15,15v482c0,8.3,6.7,15,15,15h380
			c8.3,0,15-6.7,15-15V165C461,161,459.4,157.2,456.6,154.4z M345,282.7h-62.3V345c0,14.8-11.9,26.7-26.7,26.7
			c-14.8,0-26.7-11.9-26.7-26.7v-62.3H167c-14.8,0-26.7-11.9-26.7-26.7c0-14.8,11.9-26.7,26.7-26.7h62.3V167
			c0-14.8,11.9-26.7,26.7-26.7c14.8,0,26.7,11.9,26.7,26.7v62.3H345c14.8,0,26.7,11.9,26.7,26.7C371.7,270.8,359.8,282.7,345,282.7z
			"/>
	</g>
</g>
</svg>
